#tb 0: 1/2997
0,          0,          0,        0,  1036800, 0x2a90d062
0,        100,        100,        0,  1036800, 0x6565aded
0,        200,        200,        0,  1036800, 0xf0b587d2
0,        300,        300,        0,  1036800, 0xf0b4e53f
0,        400,        400,        0,  1036800, 0x5ba4b96a
0,        500,        500,        0,  1036800, 0x501df9c1
0,        600,        600,        0,  1036800, 0xcf45b940
0,        700,        700,        0,  1036800, 0xa454df07
0,        800,        800,        0,  1036800, 0xc504d152
0,        900,        900,        0,  1036800, 0xd90ecac7
0,       1000,       1000,        0,  1036800, 0xe30368df
0,       1100,       1100,        0,  1036800, 0x0ca35522
0,       1200,       1200,        0,  1036800, 0xe76b8d43
0,       1300,       1300,        0,  1036800, 0x7c85a447
0,       1400,       1400,        0,  1036800, 0x3e2d1b5f
0,       1500,       1500,        0,  1036800, 0x230fa5a6
0,       1600,       1600,        0,  1036800, 0x4fad025e
0,       1700,       1700,        0,  1036800, 0x7d3366ae
0,       1800,       1800,        0,  1036800, 0xa83720f7
0,       1900,       1900,        0,  1036800, 0x5dbd13b1
0,       2000,       2000,        0,  1036800, 0xd0ebd56d
0,       2100,       2100,        0,  1036800, 0x4d7c67f3
0,       2200,       2200,        0,  1036800, 0x226baa3f
0,       2300,       2300,        0,  1036800, 0xc0e93acf
0,       2400,       2400,        0,  1036800, 0x5a466c17
0,       2500,       2500,        0,  1036800, 0xfdb7d2ea
